<?xml version="1.0" encoding="iso-8859-1"?>
<!-- Generator: Adobe Illustrator 19.0.0, SVG Export Plug-In . SVG Version: 6.00 Build 0)  -->
<svg version="1.1" id="Capa_1" xmlns="http://www.w3.org/2000/svg" xmlns:xlink="http://www.w3.org/1999/xlink" x="0px" y="0px"
	 viewBox="0 0 511.021 511.021" style="enable-background:new 0 0 511.021 511.021;" xml:space="preserve">
<path id="SVGCleanerId_0" style="fill:#425A6B;" d="M272.515,357.154c0,0-94.933-14.933-129.067-29.867L272.515,357.154z"/>
<g>
	<path id="SVGCleanerId_0_1_" style="fill:#425A6B;" d="M272.515,357.154c0,0-94.933-14.933-129.067-29.867L272.515,357.154z"/>
</g>
<path style="fill:#425A6B;" d="M155.182,31.821c-3.2,3.2-3.2,5.333-2.133,9.6c1.067,4.267,3.2,7.467,4.267,11.733
	c2.133,7.467,2.133,14.933,3.2,22.4c0,21.333,1.067,43.733-4.267,65.067c-3.2,12.8-7.467,24.533-10.667,37.333
	c-5.333,20.267-5.333,42.667-1.067,62.933c-2.133-4.267-6.4-7.467-9.6-10.667c-10.667-9.6-16-23.467-18.133-38.4
	c-2.133-13.867,0-28.8-1.067-43.733c0-4.267,0-9.6,1.067-13.867c1.067-4.267,3.2-8.533,5.333-12.8
	c8.533-18.133,13.867-37.333,13.867-57.6c0-7.467,0-14.933,2.133-22.4s8.533-16,16-16L155.182,31.821z"/>
<path style="fill:#F5B54C;" d="M345.049,375.288c0,0,0,17.067,3.2,30.933c3.2,14.933,5.333,56.533,3.2,64
	c-2.133,7.467-6.4,20.267-2.133,25.6c4.267,5.333,12.8,3.2,17.067,3.2c4.267,0,29.867,0,37.333,1.067s20.267,2.133,23.467,1.067
	c0,0,7.467,2.133,9.6,0c0,0,4.267,2.133,5.333-1.067c0,0,4.267,2.133,5.333-2.133c0,0,4.267,0,1.067-6.4h-6.4
	c0,0-4.267-2.133-6.4-2.133c-2.133,0-36.267-18.133-38.4-20.267c-2.133-1.067-9.6-10.667-9.6-19.2c0-9.6,3.2-91.733,3.2-91.733
	L345.049,375.288z"/>
<path style="fill:#FFD15C;" d="M346.115,383.821c0,0,0,16,4.267,30.933c4.267,14.933,7.467,56.533,5.333,64
	s-5.333,20.267-1.067,24.533c4.267,5.333,12.8,3.2,17.067,3.2c4.267,0,29.867,0,37.333,1.067s20.267,2.133,23.467,1.067
	c0,0,7.467,2.133,9.6,0c0,0,4.267,2.133,5.333-1.067c0,0,4.267,2.133,5.333-2.133c0,0,4.267,0,1.067-6.4h-6.4
	c0,0-4.267-2.133-6.4-2.133c-2.133,0-36.267-18.133-39.467-20.267c-2.133-1.067-10.667-10.667-10.667-19.2c0-9.6,0-91.733,0-91.733
	L346.115,383.821z"/>
<path style="fill:#344A5E;" d="M402.649,337.954c-3.2-9.6-7.467-21.333-10.667-29.867c-6.4-17.067-16-26.667-26.667-28.8
	c-10.667-2.133-56.533,2.133-78.933,5.333c-21.333,3.2-51.2,11.733-51.2,11.733l-3.2-5.333l-26.667,38.4L402.649,337.954z"/>
<path style="fill:#FFD15C;" d="M225.582,12.621c0,0,7.467,4.267,9.6,8.533c2.133,4.267,5.333,17.067,5.333,22.4
	c0,6.4-2.133,6.4-1.067,9.6c1.067,3.2,7.467,13.867,7.467,13.867s2.133,4.267-2.133,4.267c-5.333,1.067-5.333,1.067-5.333,1.067
	s-1.067,3.2-1.067,5.333c0,3.2-1.067,2.133-2.133,1.067c0,0,2.133,2.133,1.067,4.267c-2.133,2.133-3.2,5.333-5.333,9.6
	c-3.2,5.333-19.2-1.067-19.2-1.067s-10.667,8.533-11.733,12.8c-1.067,4.267,1.067,9.6,1.067,9.6s14.933,10.667,17.067,24.533
	l-24.533,40.533l-51.2,12.8c0,0-3.2-25.6-4.267-33.067c-1.067-7.467-1.067-22.4-1.067-22.4s-12.8-3.2-16-5.333
	c-3.2-2.133-6.4-11.733-6.4-11.733s16-22.4,32-17.067c0,0,1.067-6.4,12.8-5.333c0,0,10.667-20.267,7.467-37.333
	c-4.267-18.133,10.667-38.4,10.667-38.4S217.049,8.354,225.582,12.621z"/>
<path style="fill:#425A6B;" d="M221.315,36.088L221.315,36.088c0,0,1.067,1.067,0,2.133l0,0c0,0,0,0-1.067,0
	c-3.2,1.067-5.333,4.267-6.4,7.467c-1.067,4.267-3.2,7.467-7.467,7.467c-3.2,0-6.4-2.133-7.467-5.333c0-1.067-1.067-2.133-1.067-3.2
	c-1.067-3.2-5.333-5.333-9.6-4.267s-6.4,4.267-7.467,8.533c-1.067,4.267-1.067,7.467-1.067,11.733c0,1.067,0,2.133,0,3.2
	c-1.067,3.2-3.2,4.267-6.4,5.333c-3.2,1.067-7.467,3.2-8.533,0c-9.6-14.933-3.2-34.133-3.2-34.133c0-2.133-5.333-3.2-5.333-3.2v-6.4
	c0,0,0,0,1.067,0c3.2-1.067,7.467-3.2,7.467-3.2c5.333-14.933,26.667-21.333,26.667-21.333c28.8-5.333,42.667,14.933,44.8,19.2
	c0,0,0,0,0,1.067l0,0l0,0C235.182,20.088,212.782,20.088,221.315,36.088z"/>
<path style="fill:#56BFEB;" d="M67.715,108.621c-3.2,0-5.333,5.333-4.267,11.733c0,6.4,3.2,10.667,6.4,10.667l25.6-2.133
	c3.2,0,5.333-5.333,4.267-11.733c0-6.4-3.2-10.667-6.4-10.667L67.715,108.621z"/>
<g>
	
		<ellipse transform="matrix(-0.0693 -0.9976 0.9976 -0.0693 -16.9752 220.6014)" style="fill:#8AD6F7;" cx="94.42" cy="118.219" rx="11.733" ry="5.333"/>
	<path style="fill:#8AD6F7;" d="M99.715,117.154c0,3.2,0,5.333-1.067,7.467c0,3.2-2.133,4.267-3.2,4.267
		c-2.133,0-3.2-1.067-4.267-3.2c-1.067-2.133-2.133-4.267-2.133-7.467c0-3.2,0-5.333,1.067-7.467c0-2.133,2.133-4.267,3.2-4.267
		c2.133,0,3.2,1.067,4.267,3.2S99.715,115.021,99.715,117.154z"/>
</g>
<path style="fill:#425A6B;" d="M144.515,113.954c0,4.267-3.2,7.467-7.467,7.467l-43.733,3.2c-1.067,0-1.067-1.067-2.133-2.133
	c-1.067-1.067-1.067-3.2-1.067-5.333s0-4.267,1.067-5.333c0-1.067,1.067-2.133,1.067-2.133l43.733-3.2
	C140.249,107.554,144.515,109.688,144.515,113.954z"/>
<path style="fill:#56BFEB;" d="M135.982,103.288c-3.2,0-5.333,5.333-4.267,11.733c0,6.4,3.2,10.667,6.4,10.667l25.6-2.133
	c3.2,0,5.333-5.333,4.267-11.733c0-6.4-3.2-10.667-6.4-10.667L135.982,103.288z"/>
<ellipse transform="matrix(-0.0693 -0.9976 0.9976 -0.0693 61.2966 282.9574)" style="fill:#8AD6F7;" cx="162.644" cy="112.885" rx="11.733" ry="5.333"/>
<ellipse transform="matrix(-0.0693 -0.9976 0.9976 -0.0693 62.4473 284.0209)" style="fill:#E8EAE8;" cx="163.711" cy="112.881" rx="6.4" ry="3.2"/>
<path style="fill:#F5B54C;" d="M166.915,134.221c-1.067,1.067-20.267,20.267-28.8,35.2c-1.067-4.267-1.067-7.467-1.067-9.6
	c-1.067-7.467-1.067-22.4-1.067-22.4S148.782,148.088,166.915,134.221z"/>
<path style="fill:#FFD15C;" d="M124.249,95.821c0,0,12.8-2.133,8.533,7.467c-3.2,8.533-4.267,10.667-4.267,10.667
	s-2.133,11.733-2.133,13.867c0,0-3.2,6.4-6.4,0c0,0,1.067,4.267-3.2,4.267c-4.267,0-5.333-4.267-5.333-4.267
	s2.133,5.333-2.133,4.267c-4.267,0-6.4-4.267-6.4-4.267s0,4.267-2.133,3.2c-2.133,0-4.267-3.2-4.267-5.333
	c0-1.067-1.067-4.267-1.067-6.4c0-2.133,0-4.267,0-6.4l1.067-10.667c0,0,1.067-7.467,7.467-6.4c0,0,6.4-4.267,9.6-2.133
	C113.582,94.754,118.915,89.421,124.249,95.821L124.249,95.821z"/>
<g>
	<path style="fill:#F5B54C;" d="M121.049,127.821c0,0,0,0,0-1.067c0-1.067,0-2.133-1.067-3.2c0-1.067,0-3.2-1.067-4.267
		c0-1.067,0-2.133,0-3.2c0,0,0,0,0-1.067l0,0l0,0l0,0l0,0l0,0l0,0v-1.067c0-2.133,1.067-3.2,1.067-5.333s1.067-3.2,1.067-4.267
		c0-1.067,1.067-2.133,1.067-3.2c0-1.067,0-1.067,0-1.067s0,0,0,1.067c0,1.067,0,2.133-1.067,3.2c0,1.067-1.067,3.2-1.067,4.267
		c0,2.133-1.067,3.2-1.067,5.333v1.067l0,0l0,0l0,0l0,0l0,0l0,0l0,0c0,0,0,0,0,1.067c0,1.067,0,2.133,0,2.133c0,2.133,0,3.2,0,4.267
		c0,1.067,0,2.133,0,3.2C121.049,126.754,121.049,127.821,121.049,127.821z"/>
	<path style="fill:#F5B54C;" d="M112.515,127.821c0,0,0,0,0-1.067c0-1.067,0-2.133-1.067-3.2c0-1.067-1.067-3.2-1.067-4.267v-1.067
		v-1.067c0-1.067,0-2.133,0-2.133c0-2.133,1.067-3.2,1.067-5.333s1.067-3.2,1.067-4.267c0-1.067,1.067-2.133,1.067-3.2
		s0-1.067,0-1.067s0,0,0,1.067s0,2.133,0,3.2c0,1.067,0,3.2-1.067,4.267c0,2.133-1.067,3.2-1.067,5.333c0,1.067,0,2.133,0,2.133
		v1.067v1.067c0,2.133,0,3.2,1.067,4.267c0,1.067,0,2.133,0,3.2C112.515,127.821,112.515,127.821,112.515,127.821z"/>
	<path style="fill:#F5B54C;" d="M103.982,127.821c0-1.067-1.067-1.067-1.067-2.133s-1.067-1.067-1.067-2.133
		c-1.067-1.067-1.067-3.2-2.133-4.267l0,0l0,0c1.067-2.133,1.067-5.333,2.133-7.467c0-1.067,1.067-2.133,1.067-4.267
		c0-1.067,0-1.067,1.067-2.133c0-1.067,0-1.067,1.067-2.133c0,1.067,0,1.067,0,2.133c0,1.067,0,1.067,0,2.133s0,2.133-1.067,4.267
		c0,2.133-1.067,5.333-2.133,7.467l0,0c0,1.067,1.067,3.2,1.067,5.333c0,1.067,0,2.133,1.067,2.133
		C103.982,125.688,103.982,126.754,103.982,127.821z"/>
</g>
<path style="fill:#FFD15C;" d="M147.715,173.688l-6.4,19.2c0,0,6.4,33.067,7.467,39.467c1.067,6.4,6.4,51.2,2.133,61.867
	c-4.267,10.667,0,18.133,0,18.133l85.333-18.133c0,0-3.2-24.533-5.333-33.067c-2.133-8.533,1.067-18.133,1.067-18.133
	s5.333-28.8,2.133-42.667c0,0,9.6-20.267-6.4-48c-8.533-14.933-16-23.467-20.267-28.8c-3.2-3.2-7.467-3.2-10.667,0l-17.067,23.467
	L147.715,173.688z"/>
<path style="fill:#F5B54C;" d="M205.315,99.021c3.2-3.2,6.4-5.333,6.4-5.333c-8.533-5.333-14.933-12.8-20.267-21.333
	C194.649,83.021,198.915,91.554,205.315,99.021z"/>
<path style="fill:#F3F3F3;" d="M235.182,199.288c0,2.133,1.067,5.333,1.067,8.533c-12.8,1.067-36.267,5.333-51.2,9.6
	c-17.067,5.333-37.333,6.4-37.333,6.4c-2.133-11.733-6.4-30.933-6.4-30.933s-1.067-6.4-2.133-13.867c3.2,3.2,9.6,4.267,24.533,1.067
	c14.933-3.2,36.267-25.6,35.2-39.467c-1.067-13.867-21.333-32-21.333-32s17.067,9.6,24.533,14.933l0,0
	c7.467,5.333,13.867,11.733,18.133,18.133c2.133,3.2,4.267,6.4,7.467,10.667C244.782,179.021,235.182,199.288,235.182,199.288z"/>
<path style="fill:#425A6B;" d="M151.982,289.954c0,0,13.867-13.867,42.667-13.867s39.467,4.267,39.467,4.267s2.133,9.6,1.067,16v3.2
	c0,0,29.867-8.533,51.2-11.733c21.333-3.2,68.267-7.467,78.933-5.333c10.667,2.133,20.267,12.8,26.667,28.8
	c6.4,17.067,17.067,43.733,20.267,45.867c0,0-11.733,13.867-20.267,18.133c-8.533,4.267-33.067,20.267-48,13.867
	c0,0-4.267-35.2-4.267-46.933l-67.2,13.867c0,0-97.067-12.8-131.2-26.667C141.315,330.488,146.649,295.288,151.982,289.954z"/>
<g>
	<path style="fill:#F26F5A;" d="M324.782,419.021c0,28.8-9.6,55.467-25.6,76.8c-5.333,7.467-13.867,12.8-23.467,12.8
		c-55.467,3.2-112,3.2-169.6,0c-9.6-1.067-18.133-5.333-23.467-12.8c-16-22.4-26.667-50.133-26.667-80
		c0-26.667,7.467-52.267,21.333-72.533c10.667-17.067,33.067-24.533,52.267-18.133c49.067,14.933,113.067,27.733,156.8,34.133
		c20.267,3.2,35.2,19.2,38.4,39.467C323.715,405.154,324.782,412.621,324.782,419.021z"/>
	<path style="fill:#F26F5A;" d="M153.049,37.154c2.133-1.067,3.2-2.133,4.267-4.267c-1.067-3.2-1.067-5.333,0-8.533
		c-4.267-2.133-7.467,0-10.667,4.267C149.849,29.688,151.982,32.888,153.049,37.154z"/>
</g>
<g>
</g>
<g>
</g>
<g>
</g>
<g>
</g>
<g>
</g>
<g>
</g>
<g>
</g>
<g>
</g>
<g>
</g>
<g>
</g>
<g>
</g>
<g>
</g>
<g>
</g>
<g>
</g>
<g>
</g>
</svg>
